<mxfile host="app.diagrams.net" modified="2023-08-16T02:37:02.313Z" agent="Mozilla/5.0 (Windows NT 10.0; Win64; x64) AppleWebKit/537.36 (KHTML, like Gecko) Chrome/115.0.0.0 Safari/537.36" etag="F2BWCdPgZjMZdNp1DWtc" version="21.6.8" type="github" pages="2">
  <diagram id="LQkzNqIqU5mgM2jNCAY0" name="Page-2">
    <mxGraphModel dx="2501" dy="790" grid="1" gridSize="10" guides="1" tooltips="1" connect="1" arrows="1" fold="1" page="1" pageScale="1" pageWidth="827" pageHeight="1169" math="0" shadow="0">
      <root>
        <mxCell id="0" />
        <mxCell id="1" parent="0" />
        <mxCell id="-xaX8IH3jv-l5k4SgcOl-1" value="VIP&lt;br style=&quot;font-size: 30px;&quot;&gt;172.32.141.20" style="shape=ext;double=1;rounded=1;whiteSpace=wrap;html=1;fillColor=#e1d5e7;strokeColor=#9673a6;fontSize=30;fontStyle=1" parent="1" vertex="1">
          <mxGeometry x="340" y="20" width="830" height="80" as="geometry" />
        </mxCell>
        <mxCell id="-xaX8IH3jv-l5k4SgcOl-5" style="rounded=0;orthogonalLoop=1;jettySize=auto;html=1;exitX=0;exitY=0.5;exitDx=0;exitDy=0;" parent="1" source="-xaX8IH3jv-l5k4SgcOl-2" target="-xaX8IH3jv-l5k4SgcOl-3" edge="1">
          <mxGeometry relative="1" as="geometry" />
        </mxCell>
        <mxCell id="-xaX8IH3jv-l5k4SgcOl-7" value="" style="edgeStyle=orthogonalEdgeStyle;rounded=0;orthogonalLoop=1;jettySize=auto;html=1;" parent="1" source="-xaX8IH3jv-l5k4SgcOl-2" target="-xaX8IH3jv-l5k4SgcOl-6" edge="1">
          <mxGeometry relative="1" as="geometry" />
        </mxCell>
        <mxCell id="-xaX8IH3jv-l5k4SgcOl-2" value="PROXY 01&lt;br&gt;172.32.141.21&lt;br&gt;PIC: CKIT" style="shape=ext;double=1;rounded=1;whiteSpace=wrap;html=1;fillColor=#d5e8d4;strokeColor=#82b366;" parent="1" vertex="1">
          <mxGeometry x="340" y="120" width="120" height="80" as="geometry" />
        </mxCell>
        <mxCell id="-xaX8IH3jv-l5k4SgcOl-3" value="BIP&lt;br&gt;172.32.141.122&lt;br&gt;PIC: TM&lt;br&gt;&lt;span style=&quot;&quot;&gt;DB: BIPPRD&lt;/span&gt;" style="shape=ext;double=1;rounded=1;whiteSpace=wrap;html=1;fillColor=#f8cecc;strokeColor=#b85450;" parent="1" vertex="1">
          <mxGeometry x="100" y="230" width="120" height="80" as="geometry" />
        </mxCell>
        <mxCell id="-xaX8IH3jv-l5k4SgcOl-11" value="" style="edgeStyle=orthogonalEdgeStyle;rounded=0;orthogonalLoop=1;jettySize=auto;html=1;" parent="1" source="-xaX8IH3jv-l5k4SgcOl-6" target="-xaX8IH3jv-l5k4SgcOl-10" edge="1">
          <mxGeometry relative="1" as="geometry" />
        </mxCell>
        <mxCell id="-xaX8IH3jv-l5k4SgcOl-6" value="EBS 01&lt;br&gt;172.32.141.120&lt;br&gt;PIC: TM" style="shape=ext;double=1;rounded=1;whiteSpace=wrap;html=1;fillColor=#ffe6cc;strokeColor=#d79b00;" parent="1" vertex="1">
          <mxGeometry x="340" y="230" width="120" height="80" as="geometry" />
        </mxCell>
        <mxCell id="-xaX8IH3jv-l5k4SgcOl-14" value="" style="edgeStyle=orthogonalEdgeStyle;rounded=0;orthogonalLoop=1;jettySize=auto;html=1;" parent="1" source="-xaX8IH3jv-l5k4SgcOl-8" target="-xaX8IH3jv-l5k4SgcOl-13" edge="1">
          <mxGeometry relative="1" as="geometry" />
        </mxCell>
        <mxCell id="-xaX8IH3jv-l5k4SgcOl-8" value="EBS 02&lt;br&gt;172.32.141.121&lt;br&gt;PIC: TM" style="shape=ext;double=1;rounded=1;whiteSpace=wrap;html=1;fillColor=#ffe6cc;strokeColor=#d79b00;" parent="1" vertex="1">
          <mxGeometry x="570" y="230" width="120" height="80" as="geometry" />
        </mxCell>
        <mxCell id="-xaX8IH3jv-l5k4SgcOl-10" value="DBA 01 (RAC)&lt;br&gt;IP: 172.32.142.100&lt;br&gt;PIC: HPT&lt;br&gt;DB: CDBEBS01" style="shape=ext;double=1;rounded=1;whiteSpace=wrap;html=1;fillColor=#1ba1e2;fontColor=#ffffff;strokeColor=#006EAF;" parent="1" vertex="1">
          <mxGeometry x="340" y="350" width="120" height="80" as="geometry" />
        </mxCell>
        <mxCell id="-xaX8IH3jv-l5k4SgcOl-13" value="DBA 02 (RAC)&lt;br&gt;IP:172.32.142.101&lt;br&gt;PIC: HPT&lt;br&gt;DB: CDBEBS02" style="shape=ext;double=1;rounded=1;whiteSpace=wrap;html=1;fillColor=#1ba1e2;fontColor=#ffffff;strokeColor=#006EAF;" parent="1" vertex="1">
          <mxGeometry x="570" y="350" width="120" height="80" as="geometry" />
        </mxCell>
        <mxCell id="-xaX8IH3jv-l5k4SgcOl-20" value="" style="endArrow=classic;html=1;rounded=0;exitX=1;exitY=1;exitDx=0;exitDy=0;entryX=0;entryY=0.5;entryDx=0;entryDy=0;" parent="1" source="-xaX8IH3jv-l5k4SgcOl-6" target="-xaX8IH3jv-l5k4SgcOl-13" edge="1">
          <mxGeometry width="50" height="50" relative="1" as="geometry">
            <mxPoint x="480" y="350" as="sourcePoint" />
            <mxPoint x="530" y="300" as="targetPoint" />
          </mxGeometry>
        </mxCell>
        <mxCell id="-xaX8IH3jv-l5k4SgcOl-21" value="" style="endArrow=classic;html=1;rounded=0;exitX=-0.017;exitY=0.888;exitDx=0;exitDy=0;entryX=1;entryY=0.5;entryDx=0;entryDy=0;exitPerimeter=0;" parent="1" source="-xaX8IH3jv-l5k4SgcOl-8" target="-xaX8IH3jv-l5k4SgcOl-10" edge="1">
          <mxGeometry width="50" height="50" relative="1" as="geometry">
            <mxPoint x="470" y="280" as="sourcePoint" />
            <mxPoint x="580" y="360" as="targetPoint" />
          </mxGeometry>
        </mxCell>
        <mxCell id="-xaX8IH3jv-l5k4SgcOl-22" value="" style="endArrow=classic;html=1;rounded=0;exitX=0.95;exitY=1.013;exitDx=0;exitDy=0;entryX=0;entryY=0.5;entryDx=0;entryDy=0;exitPerimeter=0;" parent="1" source="-xaX8IH3jv-l5k4SgcOl-3" target="-xaX8IH3jv-l5k4SgcOl-10" edge="1">
          <mxGeometry width="50" height="50" relative="1" as="geometry">
            <mxPoint x="470" y="320" as="sourcePoint" />
            <mxPoint x="580" y="400" as="targetPoint" />
          </mxGeometry>
        </mxCell>
        <mxCell id="-xaX8IH3jv-l5k4SgcOl-23" value="Shared Disk" style="shape=ext;double=1;rounded=1;whiteSpace=wrap;html=1;" parent="1" vertex="1">
          <mxGeometry x="450" y="500" width="120" height="80" as="geometry" />
        </mxCell>
        <mxCell id="-xaX8IH3jv-l5k4SgcOl-24" value="" style="endArrow=none;dashed=1;html=1;dashPattern=1 3;strokeWidth=2;rounded=0;exitX=0.5;exitY=1;exitDx=0;exitDy=0;entryX=0.5;entryY=0;entryDx=0;entryDy=0;" parent="1" source="-xaX8IH3jv-l5k4SgcOl-10" target="-xaX8IH3jv-l5k4SgcOl-23" edge="1">
          <mxGeometry width="50" height="50" relative="1" as="geometry">
            <mxPoint x="400" y="630" as="sourcePoint" />
            <mxPoint x="450" y="580" as="targetPoint" />
          </mxGeometry>
        </mxCell>
        <mxCell id="-xaX8IH3jv-l5k4SgcOl-25" value="" style="endArrow=none;dashed=1;html=1;dashPattern=1 3;strokeWidth=2;rounded=0;exitX=0.5;exitY=1;exitDx=0;exitDy=0;entryX=0.5;entryY=0;entryDx=0;entryDy=0;" parent="1" source="-xaX8IH3jv-l5k4SgcOl-13" target="-xaX8IH3jv-l5k4SgcOl-23" edge="1">
          <mxGeometry width="50" height="50" relative="1" as="geometry">
            <mxPoint x="410" y="440" as="sourcePoint" />
            <mxPoint x="520" y="510" as="targetPoint" />
          </mxGeometry>
        </mxCell>
        <mxCell id="-xaX8IH3jv-l5k4SgcOl-26" value="DC" style="whiteSpace=wrap;html=1;fillColor=#ffe6cc;strokeColor=#d79b00;fontSize=20;fontStyle=1" parent="1" vertex="1">
          <mxGeometry x="360" y="840" width="120" height="60" as="geometry" />
        </mxCell>
        <mxCell id="-xaX8IH3jv-l5k4SgcOl-31" value="" style="edgeStyle=orthogonalEdgeStyle;rounded=0;orthogonalLoop=1;jettySize=auto;html=1;fontSize=20;" parent="1" source="-xaX8IH3jv-l5k4SgcOl-27" target="-xaX8IH3jv-l5k4SgcOl-30" edge="1">
          <mxGeometry relative="1" as="geometry" />
        </mxCell>
        <mxCell id="-xaX8IH3jv-l5k4SgcOl-27" value="PROXY 02&lt;br&gt;IP: 172.32.141.22&lt;br&gt;PIC:CKIT" style="shape=ext;double=1;rounded=1;whiteSpace=wrap;html=1;fillColor=#d5e8d4;strokeColor=#82b366;" parent="1" vertex="1">
          <mxGeometry x="1050" y="120" width="120" height="80" as="geometry" />
        </mxCell>
        <mxCell id="-xaX8IH3jv-l5k4SgcOl-28" value="" style="endArrow=classic;html=1;rounded=0;exitX=1;exitY=0.5;exitDx=0;exitDy=0;" parent="1" source="-xaX8IH3jv-l5k4SgcOl-2" target="-xaX8IH3jv-l5k4SgcOl-8" edge="1">
          <mxGeometry width="50" height="50" relative="1" as="geometry">
            <mxPoint x="470" y="320" as="sourcePoint" />
            <mxPoint x="580" y="400" as="targetPoint" />
          </mxGeometry>
        </mxCell>
        <mxCell id="-xaX8IH3jv-l5k4SgcOl-29" value="" style="endArrow=classic;startArrow=classic;html=1;rounded=0;fontSize=20;entryX=0;entryY=0.5;entryDx=0;entryDy=0;exitX=1;exitY=0.5;exitDx=0;exitDy=0;dashed=1;" parent="1" source="-xaX8IH3jv-l5k4SgcOl-2" target="-xaX8IH3jv-l5k4SgcOl-27" edge="1">
          <mxGeometry width="50" height="50" relative="1" as="geometry">
            <mxPoint x="760" y="560" as="sourcePoint" />
            <mxPoint x="810" y="510" as="targetPoint" />
          </mxGeometry>
        </mxCell>
        <mxCell id="-xaX8IH3jv-l5k4SgcOl-33" style="edgeStyle=orthogonalEdgeStyle;rounded=0;orthogonalLoop=1;jettySize=auto;html=1;entryX=0.5;entryY=0;entryDx=0;entryDy=0;fontSize=20;" parent="1" source="-xaX8IH3jv-l5k4SgcOl-30" target="-xaX8IH3jv-l5k4SgcOl-32" edge="1">
          <mxGeometry relative="1" as="geometry" />
        </mxCell>
        <mxCell id="-xaX8IH3jv-l5k4SgcOl-30" value="EBS 03&lt;br&gt;IP: 172.32.141.124&lt;br&gt;PIC: TM" style="shape=ext;double=1;rounded=1;whiteSpace=wrap;html=1;fillColor=#ffe6cc;strokeColor=#d79b00;" parent="1" vertex="1">
          <mxGeometry x="1050" y="230" width="120" height="80" as="geometry" />
        </mxCell>
        <mxCell id="-xaX8IH3jv-l5k4SgcOl-32" value="DG 01&lt;br&gt;IP: 172.32.142.109&lt;br&gt;PIC: HPT" style="shape=ext;double=1;rounded=1;whiteSpace=wrap;html=1;" parent="1" vertex="1">
          <mxGeometry x="1050" y="360" width="120" height="80" as="geometry" />
        </mxCell>
        <mxCell id="-xaX8IH3jv-l5k4SgcOl-34" value="BIP &#39;&lt;br&gt;IP: 172.32.141.122&lt;br&gt;PIC: TM" style="shape=ext;double=1;rounded=1;whiteSpace=wrap;html=1;fillColor=#f8cecc;strokeColor=#b85450;" parent="1" vertex="1">
          <mxGeometry x="1265" y="230" width="120" height="80" as="geometry" />
        </mxCell>
        <mxCell id="-xaX8IH3jv-l5k4SgcOl-35" value="" style="endArrow=classic;html=1;rounded=0;exitX=1;exitY=0.5;exitDx=0;exitDy=0;entryX=0;entryY=0;entryDx=0;entryDy=0;" parent="1" source="-xaX8IH3jv-l5k4SgcOl-27" target="-xaX8IH3jv-l5k4SgcOl-34" edge="1">
          <mxGeometry width="50" height="50" relative="1" as="geometry">
            <mxPoint x="580" y="170" as="sourcePoint" />
            <mxPoint x="690" y="241.17647058823536" as="targetPoint" />
          </mxGeometry>
        </mxCell>
        <mxCell id="-xaX8IH3jv-l5k4SgcOl-36" value="" style="endArrow=classic;html=1;rounded=0;fontSize=20;exitX=0;exitY=0.5;exitDx=0;exitDy=0;entryX=1;entryY=0.5;entryDx=0;entryDy=0;" parent="1" source="-xaX8IH3jv-l5k4SgcOl-34" target="-xaX8IH3jv-l5k4SgcOl-30" edge="1">
          <mxGeometry width="50" height="50" relative="1" as="geometry">
            <mxPoint x="870" y="560" as="sourcePoint" />
            <mxPoint x="920" y="510" as="targetPoint" />
          </mxGeometry>
        </mxCell>
        <mxCell id="-xaX8IH3jv-l5k4SgcOl-37" value="" style="endArrow=classic;html=1;rounded=0;fontSize=20;exitX=0;exitY=1;exitDx=0;exitDy=0;entryX=1;entryY=0.5;entryDx=0;entryDy=0;" parent="1" source="-xaX8IH3jv-l5k4SgcOl-34" target="-xaX8IH3jv-l5k4SgcOl-32" edge="1">
          <mxGeometry width="50" height="50" relative="1" as="geometry">
            <mxPoint x="1280" y="290" as="sourcePoint" />
            <mxPoint x="1180" y="290" as="targetPoint" />
          </mxGeometry>
        </mxCell>
        <mxCell id="-xaX8IH3jv-l5k4SgcOl-38" value="" style="endArrow=classic;dashed=1;html=1;dashPattern=1 3;strokeWidth=2;rounded=0;fontSize=20;exitX=1;exitY=0.5;exitDx=0;exitDy=0;entryX=0;entryY=0.5;entryDx=0;entryDy=0;endFill=1;" parent="1" source="-xaX8IH3jv-l5k4SgcOl-8" target="-xaX8IH3jv-l5k4SgcOl-30" edge="1">
          <mxGeometry width="50" height="50" relative="1" as="geometry">
            <mxPoint x="760" y="550" as="sourcePoint" />
            <mxPoint x="810" y="500" as="targetPoint" />
          </mxGeometry>
        </mxCell>
        <mxCell id="-xaX8IH3jv-l5k4SgcOl-39" value="DR" style="whiteSpace=wrap;html=1;fillColor=#ffe6cc;strokeColor=#d79b00;fontSize=20;fontStyle=1" parent="1" vertex="1">
          <mxGeometry x="1160" y="840" width="120" height="60" as="geometry" />
        </mxCell>
        <mxCell id="-xaX8IH3jv-l5k4SgcOl-40" value="" style="endArrow=classic;dashed=1;html=1;dashPattern=1 3;strokeWidth=2;rounded=0;fontSize=20;exitX=1;exitY=0.613;exitDx=0;exitDy=0;entryX=0;entryY=0.5;entryDx=0;entryDy=0;exitPerimeter=0;endFill=1;" parent="1" source="-xaX8IH3jv-l5k4SgcOl-13" target="-xaX8IH3jv-l5k4SgcOl-32" edge="1">
          <mxGeometry width="50" height="50" relative="1" as="geometry">
            <mxPoint x="700" y="280" as="sourcePoint" />
            <mxPoint x="950" y="280" as="targetPoint" />
          </mxGeometry>
        </mxCell>
        <mxCell id="-xaX8IH3jv-l5k4SgcOl-41" value="DBA 03 (Single)&lt;br&gt;IP: 172.32.142.107&lt;br&gt;PIC: HPT&lt;br&gt;DB: CKHQDB" style="shape=ext;double=1;rounded=1;whiteSpace=wrap;html=1;fillColor=#1ba1e2;fontColor=#ffffff;strokeColor=#006EAF;dashed=1;" parent="1" vertex="1">
          <mxGeometry x="690" y="440" width="120" height="80" as="geometry" />
        </mxCell>
        <mxCell id="-xaX8IH3jv-l5k4SgcOl-74" value="" style="edgeStyle=none;rounded=0;orthogonalLoop=1;jettySize=auto;html=1;fontSize=12;startArrow=classic;startFill=1;endArrow=none;endFill=0;dashed=1;" parent="1" source="-xaX8IH3jv-l5k4SgcOl-42" target="-xaX8IH3jv-l5k4SgcOl-41" edge="1">
          <mxGeometry relative="1" as="geometry" />
        </mxCell>
        <mxCell id="-xaX8IH3jv-l5k4SgcOl-42" value="DBA 04&amp;nbsp;&amp;nbsp;(Single)&lt;br&gt;IP: 172.32.142.108&lt;br&gt;PIC: HPT&lt;br&gt;DB: CKHQDB" style="shape=ext;double=1;rounded=1;whiteSpace=wrap;html=1;fillColor=#1ba1e2;fontColor=#ffffff;strokeColor=#006EAF;" parent="1" vertex="1">
          <mxGeometry x="690" y="600" width="120" height="80" as="geometry" />
        </mxCell>
        <mxCell id="-xaX8IH3jv-l5k4SgcOl-45" value="" style="endArrow=classic;html=1;rounded=0;fontSize=20;exitX=1;exitY=0.5;exitDx=0;exitDy=0;entryX=0.5;entryY=0;entryDx=0;entryDy=0;" parent="1" source="-xaX8IH3jv-l5k4SgcOl-8" target="-xaX8IH3jv-l5k4SgcOl-41" edge="1">
          <mxGeometry width="50" height="50" relative="1" as="geometry">
            <mxPoint x="590" y="290" as="sourcePoint" />
            <mxPoint x="810" y="420" as="targetPoint" />
          </mxGeometry>
        </mxCell>
        <mxCell id="-xaX8IH3jv-l5k4SgcOl-47" value="MDB 01&lt;br&gt;Write&lt;br&gt;IP: 172.32.142.12&lt;br&gt;PIC: CKIT" style="shape=ext;double=1;rounded=1;whiteSpace=wrap;html=1;fillColor=#6d8764;fontColor=#ffffff;strokeColor=#3A5431;" parent="1" vertex="1">
          <mxGeometry x="-520" y="320" width="120" height="80" as="geometry" />
        </mxCell>
        <mxCell id="-xaX8IH3jv-l5k4SgcOl-48" value="MDB 02&lt;br&gt;Write&lt;br&gt;IP: 172.32.142.13&lt;br&gt;PIC:&amp;nbsp;CKIT" style="shape=ext;double=1;rounded=1;whiteSpace=wrap;html=1;fillColor=#6d8764;fontColor=#ffffff;strokeColor=#3A5431;" parent="1" vertex="1">
          <mxGeometry x="-520" y="480" width="120" height="80" as="geometry" />
        </mxCell>
        <mxCell id="-xaX8IH3jv-l5k4SgcOl-49" value="MDB 03&lt;br&gt;READ&lt;br&gt;IP: 172.32.142.14&lt;br&gt;PIC:&amp;nbsp;CKIT" style="shape=ext;double=1;rounded=1;whiteSpace=wrap;html=1;fillColor=#6d8764;fontColor=#ffffff;strokeColor=#3A5431;" parent="1" vertex="1">
          <mxGeometry x="-520" y="640" width="120" height="80" as="geometry" />
        </mxCell>
        <mxCell id="-xaX8IH3jv-l5k4SgcOl-62" style="rounded=0;orthogonalLoop=1;jettySize=auto;html=1;exitX=0;exitY=0;exitDx=0;exitDy=0;entryX=1;entryY=0.5;entryDx=0;entryDy=0;fontSize=24;" parent="1" source="-xaX8IH3jv-l5k4SgcOl-50" target="-xaX8IH3jv-l5k4SgcOl-47" edge="1">
          <mxGeometry relative="1" as="geometry" />
        </mxCell>
        <mxCell id="-xaX8IH3jv-l5k4SgcOl-63" style="edgeStyle=none;rounded=0;orthogonalLoop=1;jettySize=auto;html=1;entryX=1;entryY=0.5;entryDx=0;entryDy=0;fontSize=24;" parent="1" source="-xaX8IH3jv-l5k4SgcOl-50" target="-xaX8IH3jv-l5k4SgcOl-48" edge="1">
          <mxGeometry relative="1" as="geometry" />
        </mxCell>
        <mxCell id="-xaX8IH3jv-l5k4SgcOl-67" style="edgeStyle=none;rounded=0;orthogonalLoop=1;jettySize=auto;html=1;entryX=1;entryY=0.5;entryDx=0;entryDy=0;dashed=1;fontSize=24;" parent="1" source="-xaX8IH3jv-l5k4SgcOl-50" target="-xaX8IH3jv-l5k4SgcOl-49" edge="1">
          <mxGeometry relative="1" as="geometry" />
        </mxCell>
        <mxCell id="-xaX8IH3jv-l5k4SgcOl-68" style="edgeStyle=none;rounded=0;orthogonalLoop=1;jettySize=auto;html=1;fontSize=24;startArrow=classic;startFill=1;dashed=1;" parent="1" source="-xaX8IH3jv-l5k4SgcOl-50" target="-xaX8IH3jv-l5k4SgcOl-51" edge="1">
          <mxGeometry relative="1" as="geometry" />
        </mxCell>
        <mxCell id="-xaX8IH3jv-l5k4SgcOl-72" value="" style="edgeStyle=none;rounded=0;orthogonalLoop=1;jettySize=auto;html=1;fontSize=12;startArrow=classic;startFill=1;" parent="1" source="-xaX8IH3jv-l5k4SgcOl-50" target="-xaX8IH3jv-l5k4SgcOl-52" edge="1">
          <mxGeometry relative="1" as="geometry" />
        </mxCell>
        <mxCell id="-xaX8IH3jv-l5k4SgcOl-50" value="MDB PROXY 01&lt;br&gt;IP: 172.32.142.10&lt;br&gt;PIC:&amp;nbsp;CKIT&lt;br&gt;HA Proxy" style="shape=ext;double=1;rounded=1;whiteSpace=wrap;html=1;fillColor=#d5e8d4;strokeColor=#82b366;" parent="1" vertex="1">
          <mxGeometry x="-320" y="400" width="120" height="80" as="geometry" />
        </mxCell>
        <mxCell id="-xaX8IH3jv-l5k4SgcOl-64" style="edgeStyle=none;rounded=0;orthogonalLoop=1;jettySize=auto;html=1;exitX=0;exitY=0;exitDx=0;exitDy=0;entryX=1;entryY=0.5;entryDx=0;entryDy=0;fontSize=24;" parent="1" source="-xaX8IH3jv-l5k4SgcOl-51" target="-xaX8IH3jv-l5k4SgcOl-47" edge="1">
          <mxGeometry relative="1" as="geometry" />
        </mxCell>
        <mxCell id="-xaX8IH3jv-l5k4SgcOl-65" style="edgeStyle=none;rounded=0;orthogonalLoop=1;jettySize=auto;html=1;exitX=0;exitY=0.5;exitDx=0;exitDy=0;entryX=1;entryY=0.5;entryDx=0;entryDy=0;fontSize=24;" parent="1" source="-xaX8IH3jv-l5k4SgcOl-51" target="-xaX8IH3jv-l5k4SgcOl-48" edge="1">
          <mxGeometry relative="1" as="geometry" />
        </mxCell>
        <mxCell id="-xaX8IH3jv-l5k4SgcOl-66" style="edgeStyle=none;rounded=0;orthogonalLoop=1;jettySize=auto;html=1;exitX=0;exitY=0.5;exitDx=0;exitDy=0;entryX=1;entryY=0.5;entryDx=0;entryDy=0;fontSize=24;dashed=1;" parent="1" source="-xaX8IH3jv-l5k4SgcOl-51" target="-xaX8IH3jv-l5k4SgcOl-49" edge="1">
          <mxGeometry relative="1" as="geometry" />
        </mxCell>
        <mxCell id="-xaX8IH3jv-l5k4SgcOl-73" value="" style="edgeStyle=none;rounded=0;orthogonalLoop=1;jettySize=auto;html=1;fontSize=12;startArrow=classic;startFill=1;" parent="1" source="-xaX8IH3jv-l5k4SgcOl-51" target="-xaX8IH3jv-l5k4SgcOl-52" edge="1">
          <mxGeometry relative="1" as="geometry" />
        </mxCell>
        <mxCell id="-xaX8IH3jv-l5k4SgcOl-51" value="MDB PROXY 02&lt;br&gt;IP: 172.32.142.11&lt;br&gt;PIC:&amp;nbsp;CKIT&lt;br&gt;HA Proxy" style="shape=ext;double=1;rounded=1;whiteSpace=wrap;html=1;fillColor=#d5e8d4;strokeColor=#82b366;" parent="1" vertex="1">
          <mxGeometry x="-320" y="560" width="120" height="80" as="geometry" />
        </mxCell>
        <mxCell id="-xaX8IH3jv-l5k4SgcOl-52" value="VIP&lt;br&gt;172.32.142.9&lt;br&gt;&lt;span style=&quot;background-color: rgb(248, 249, 250);&quot;&gt;PIC:&amp;nbsp;&lt;/span&gt;&lt;span style=&quot;background-color: rgb(248, 249, 250);&quot;&gt;CKIT&lt;/span&gt;" style="shape=ext;double=1;rounded=1;whiteSpace=wrap;html=1;arcSize=50;rotation=90;fillColor=#e1d5e7;strokeColor=#9673a6;" parent="1" vertex="1">
          <mxGeometry x="-220" y="480" width="250" height="80" as="geometry" />
        </mxCell>
        <mxCell id="-xaX8IH3jv-l5k4SgcOl-53" value="" style="endArrow=classic;html=1;rounded=0;exitX=0;exitY=0.5;exitDx=0;exitDy=0;entryX=0.452;entryY=0.008;entryDx=0;entryDy=0;entryPerimeter=0;" parent="1" source="-xaX8IH3jv-l5k4SgcOl-10" target="-xaX8IH3jv-l5k4SgcOl-52" edge="1">
          <mxGeometry width="50" height="50" relative="1" as="geometry">
            <mxPoint x="224" y="321.03999999999996" as="sourcePoint" />
            <mxPoint x="350" y="400" as="targetPoint" />
          </mxGeometry>
        </mxCell>
        <mxCell id="-xaX8IH3jv-l5k4SgcOl-56" value="DB Link" style="edgeLabel;html=1;align=center;verticalAlign=middle;resizable=0;points=[];fontSize=20;" parent="-xaX8IH3jv-l5k4SgcOl-53" vertex="1" connectable="0">
          <mxGeometry x="-0.1072" y="-1" relative="1" as="geometry">
            <mxPoint x="1" as="offset" />
          </mxGeometry>
        </mxCell>
        <mxCell id="-xaX8IH3jv-l5k4SgcOl-54" value="" style="endArrow=classic;html=1;rounded=0;exitX=-0.031;exitY=0.642;exitDx=0;exitDy=0;entryX=0.75;entryY=0;entryDx=0;entryDy=0;exitPerimeter=0;" parent="1" source="-xaX8IH3jv-l5k4SgcOl-13" target="-xaX8IH3jv-l5k4SgcOl-52" edge="1">
          <mxGeometry width="50" height="50" relative="1" as="geometry">
            <mxPoint x="410" y="440" as="sourcePoint" />
            <mxPoint x="-35.63999999999987" y="458" as="targetPoint" />
          </mxGeometry>
        </mxCell>
        <mxCell id="-xaX8IH3jv-l5k4SgcOl-55" value="DB Link" style="edgeLabel;html=1;align=center;verticalAlign=middle;resizable=0;points=[];fontSize=20;" parent="-xaX8IH3jv-l5k4SgcOl-54" vertex="1" connectable="0">
          <mxGeometry x="0.116" y="-1" relative="1" as="geometry">
            <mxPoint as="offset" />
          </mxGeometry>
        </mxCell>
        <mxCell id="-xaX8IH3jv-l5k4SgcOl-58" value="&lt;font style=&quot;font-size: 22px;&quot;&gt;CDBEBS:&amp;nbsp;&lt;span style=&quot;text-align: center;&quot;&gt;CDBEBS01&amp;nbsp;&lt;/span&gt;&amp;amp;&amp;nbsp;&lt;span style=&quot;text-align: center;&quot;&gt;CDBEBS02&lt;/span&gt;&lt;br&gt;BIP: BIPPRD&lt;br&gt;DBA03: CKHQDB&lt;/font&gt;" style="text;html=1;align=left;verticalAlign=middle;resizable=0;points=[];autosize=1;strokeColor=none;fillColor=none;fontSize=20;" parent="1" vertex="1">
          <mxGeometry x="30" y="635" width="380" height="90" as="geometry" />
        </mxCell>
        <mxCell id="-xaX8IH3jv-l5k4SgcOl-60" value="Plan: Move DBA 04 To DR" style="text;html=1;align=center;verticalAlign=middle;resizable=0;points=[];autosize=1;strokeColor=none;fillColor=none;fontSize=12;" parent="1" vertex="1">
          <mxGeometry x="680" y="680" width="160" height="30" as="geometry" />
        </mxCell>
        <mxCell id="-xaX8IH3jv-l5k4SgcOl-61" value="Backup EBS to Tar(TM)" style="text;html=1;align=left;verticalAlign=middle;resizable=0;points=[];autosize=1;strokeColor=none;fillColor=none;fontSize=24;" parent="1" vertex="1">
          <mxGeometry x="30" y="740" width="280" height="40" as="geometry" />
        </mxCell>
        <mxCell id="-xaX8IH3jv-l5k4SgcOl-70" style="edgeStyle=none;rounded=0;orthogonalLoop=1;jettySize=auto;html=1;entryX=1;entryY=0.5;entryDx=0;entryDy=0;fontSize=12;startArrow=none;startFill=0;" parent="1" source="-xaX8IH3jv-l5k4SgcOl-69" target="-xaX8IH3jv-l5k4SgcOl-52" edge="1">
          <mxGeometry relative="1" as="geometry" />
        </mxCell>
        <mxCell id="-xaX8IH3jv-l5k4SgcOl-69" value="&lt;font style=&quot;font-size: 12px;&quot;&gt;RAW Data&lt;br&gt;NRI&lt;br&gt;&lt;/font&gt;" style="shape=cylinder3;whiteSpace=wrap;html=1;boundedLbl=1;backgroundOutline=1;size=15;fontSize=30;fillColor=#76608a;fontColor=#ffffff;strokeColor=#432D57;" parent="1" vertex="1">
          <mxGeometry x="-155" y="710" width="120" height="120" as="geometry" />
        </mxCell>
        <mxCell id="G134Gb60VrrNLTVbaq9U-17" style="rounded=0;orthogonalLoop=1;jettySize=auto;html=1;" parent="1" source="G134Gb60VrrNLTVbaq9U-3" target="G134Gb60VrrNLTVbaq9U-16" edge="1">
          <mxGeometry relative="1" as="geometry" />
        </mxCell>
        <mxCell id="G134Gb60VrrNLTVbaq9U-3" value="BIP 1" style="shape=ext;double=1;rounded=1;whiteSpace=wrap;html=1;fillColor=#f8cecc;strokeColor=#b85450;" parent="1" vertex="1">
          <mxGeometry x="1840" y="430" width="120" height="80" as="geometry" />
        </mxCell>
        <mxCell id="G134Gb60VrrNLTVbaq9U-18" style="rounded=0;orthogonalLoop=1;jettySize=auto;html=1;entryX=0.75;entryY=0;entryDx=0;entryDy=0;" parent="1" source="G134Gb60VrrNLTVbaq9U-4" target="G134Gb60VrrNLTVbaq9U-16" edge="1">
          <mxGeometry relative="1" as="geometry" />
        </mxCell>
        <mxCell id="G134Gb60VrrNLTVbaq9U-4" value="BIP 2" style="shape=ext;double=1;rounded=1;whiteSpace=wrap;html=1;fillColor=#f8cecc;strokeColor=#b85450;" parent="1" vertex="1">
          <mxGeometry x="2040" y="430" width="120" height="80" as="geometry" />
        </mxCell>
        <mxCell id="G134Gb60VrrNLTVbaq9U-9" style="rounded=0;orthogonalLoop=1;jettySize=auto;html=1;exitX=0.5;exitY=1;exitDx=0;exitDy=0;entryX=0.567;entryY=0.013;entryDx=0;entryDy=0;entryPerimeter=0;" parent="1" source="G134Gb60VrrNLTVbaq9U-5" target="G134Gb60VrrNLTVbaq9U-4" edge="1">
          <mxGeometry relative="1" as="geometry" />
        </mxCell>
        <mxCell id="G134Gb60VrrNLTVbaq9U-10" value="" style="edgeStyle=orthogonalEdgeStyle;rounded=0;orthogonalLoop=1;jettySize=auto;html=1;" parent="1" source="G134Gb60VrrNLTVbaq9U-5" target="G134Gb60VrrNLTVbaq9U-3" edge="1">
          <mxGeometry relative="1" as="geometry" />
        </mxCell>
        <mxCell id="G134Gb60VrrNLTVbaq9U-5" value="PROXY 01" style="shape=ext;double=1;rounded=1;whiteSpace=wrap;html=1;fillColor=#d5e8d4;strokeColor=#82b366;" parent="1" vertex="1">
          <mxGeometry x="1840" y="240" width="120" height="80" as="geometry" />
        </mxCell>
        <mxCell id="G134Gb60VrrNLTVbaq9U-11" value="" style="edgeStyle=orthogonalEdgeStyle;rounded=0;orthogonalLoop=1;jettySize=auto;html=1;" parent="1" source="G134Gb60VrrNLTVbaq9U-6" target="G134Gb60VrrNLTVbaq9U-4" edge="1">
          <mxGeometry relative="1" as="geometry" />
        </mxCell>
        <mxCell id="G134Gb60VrrNLTVbaq9U-12" style="rounded=0;orthogonalLoop=1;jettySize=auto;html=1;exitX=0.5;exitY=1;exitDx=0;exitDy=0;" parent="1" source="G134Gb60VrrNLTVbaq9U-6" edge="1">
          <mxGeometry relative="1" as="geometry">
            <mxPoint x="1900" y="430" as="targetPoint" />
          </mxGeometry>
        </mxCell>
        <mxCell id="G134Gb60VrrNLTVbaq9U-6" value="PROXY 02" style="shape=ext;double=1;rounded=1;whiteSpace=wrap;html=1;fillColor=#d5e8d4;strokeColor=#82b366;" parent="1" vertex="1">
          <mxGeometry x="2040" y="240" width="120" height="80" as="geometry" />
        </mxCell>
        <mxCell id="G134Gb60VrrNLTVbaq9U-14" style="edgeStyle=orthogonalEdgeStyle;rounded=0;orthogonalLoop=1;jettySize=auto;html=1;entryX=0.5;entryY=0;entryDx=0;entryDy=0;" parent="1" source="G134Gb60VrrNLTVbaq9U-13" target="G134Gb60VrrNLTVbaq9U-5" edge="1">
          <mxGeometry relative="1" as="geometry" />
        </mxCell>
        <mxCell id="G134Gb60VrrNLTVbaq9U-15" style="edgeStyle=orthogonalEdgeStyle;rounded=0;orthogonalLoop=1;jettySize=auto;html=1;" parent="1" source="G134Gb60VrrNLTVbaq9U-13" target="G134Gb60VrrNLTVbaq9U-6" edge="1">
          <mxGeometry relative="1" as="geometry" />
        </mxCell>
        <mxCell id="G134Gb60VrrNLTVbaq9U-13" value="VIP" style="shape=ext;double=1;rounded=1;whiteSpace=wrap;html=1;fillColor=#e1d5e7;strokeColor=#9673a6;fontSize=30;fontStyle=1" parent="1" vertex="1">
          <mxGeometry x="1840" y="110" width="320" height="80" as="geometry" />
        </mxCell>
        <mxCell id="G134Gb60VrrNLTVbaq9U-16" value="Oracle Metadata Services&lt;br&gt;(MDS)" style="shape=ext;double=1;rounded=1;whiteSpace=wrap;html=1;fillColor=#1ba1e2;fontColor=#ffffff;strokeColor=#006EAF;dashed=1;" parent="1" vertex="1">
          <mxGeometry x="1948" y="560" width="120" height="80" as="geometry" />
        </mxCell>
      </root>
    </mxGraphModel>
  </diagram>
  <diagram id="KsjbmH12y6sHDbOjgZe6" name="Page-3">
    <mxGraphModel dx="1612" dy="830" grid="1" gridSize="10" guides="1" tooltips="1" connect="1" arrows="1" fold="1" page="1" pageScale="1" pageWidth="827" pageHeight="1169" math="0" shadow="0">
      <root>
        <mxCell id="0" />
        <mxCell id="1" parent="0" />
        <mxCell id="0WNrCbeXMYvDhO5nygcS-9" value="" style="rounded=1;whiteSpace=wrap;html=1;" vertex="1" parent="1">
          <mxGeometry x="330" y="60" width="160" height="220" as="geometry" />
        </mxCell>
        <mxCell id="0WNrCbeXMYvDhO5nygcS-8" value="" style="rounded=1;whiteSpace=wrap;html=1;" vertex="1" parent="1">
          <mxGeometry x="120" y="60" width="160" height="220" as="geometry" />
        </mxCell>
        <mxCell id="0WNrCbeXMYvDhO5nygcS-6" value="" style="edgeStyle=orthogonalEdgeStyle;rounded=0;orthogonalLoop=1;jettySize=auto;html=1;" edge="1" parent="1" source="0WNrCbeXMYvDhO5nygcS-1" target="0WNrCbeXMYvDhO5nygcS-3">
          <mxGeometry relative="1" as="geometry" />
        </mxCell>
        <mxCell id="0WNrCbeXMYvDhO5nygcS-1" value="Node 1" style="shape=parallelogram;perimeter=parallelogramPerimeter;whiteSpace=wrap;html=1;fixedSize=1;" vertex="1" parent="1">
          <mxGeometry x="140" y="90" width="120" height="60" as="geometry" />
        </mxCell>
        <mxCell id="0WNrCbeXMYvDhO5nygcS-12" value="" style="edgeStyle=orthogonalEdgeStyle;rounded=0;orthogonalLoop=1;jettySize=auto;html=1;" edge="1" parent="1" source="0WNrCbeXMYvDhO5nygcS-2" target="0WNrCbeXMYvDhO5nygcS-4">
          <mxGeometry relative="1" as="geometry" />
        </mxCell>
        <mxCell id="0WNrCbeXMYvDhO5nygcS-2" value="Node 2" style="shape=parallelogram;perimeter=parallelogramPerimeter;whiteSpace=wrap;html=1;fixedSize=1;" vertex="1" parent="1">
          <mxGeometry x="360" y="90" width="120" height="60" as="geometry" />
        </mxCell>
        <mxCell id="0WNrCbeXMYvDhO5nygcS-3" value="DB 1" style="shape=cylinder3;whiteSpace=wrap;html=1;boundedLbl=1;backgroundOutline=1;size=15;" vertex="1" parent="1">
          <mxGeometry x="170" y="190" width="60" height="80" as="geometry" />
        </mxCell>
        <mxCell id="0WNrCbeXMYvDhO5nygcS-4" value="DB 2" style="shape=cylinder3;whiteSpace=wrap;html=1;boundedLbl=1;backgroundOutline=1;size=15;" vertex="1" parent="1">
          <mxGeometry x="390" y="190" width="60" height="80" as="geometry" />
        </mxCell>
        <mxCell id="0WNrCbeXMYvDhO5nygcS-5" value="" style="endArrow=classic;startArrow=classic;html=1;rounded=0;exitX=1;exitY=0.5;exitDx=0;exitDy=0;exitPerimeter=0;" edge="1" parent="1" source="0WNrCbeXMYvDhO5nygcS-3" target="0WNrCbeXMYvDhO5nygcS-4">
          <mxGeometry width="50" height="50" relative="1" as="geometry">
            <mxPoint x="270" y="260" as="sourcePoint" />
            <mxPoint x="320" y="210" as="targetPoint" />
          </mxGeometry>
        </mxCell>
      </root>
    </mxGraphModel>
  </diagram>
</mxfile>
